<?xml version="1.0" standalone="no"?>
<!DOCTYPE svg PUBLIC "-//W3C//DTD SVG 20010904//EN"
 "http://www.w3.org/TR/2001/REC-SVG-20010904/DTD/svg10.dtd">
<svg version="1.0" xmlns="http://www.w3.org/2000/svg"
 width="700.000000pt" height="700.000000pt" viewBox="0 0 700.000000 700.000000"
 preserveAspectRatio="xMidYMid meet">
<metadata>
Created by potrace 1.11, written by Peter Selinger 2001-2013
</metadata>
<g transform="translate(0.000000,700.000000) scale(0.100000,-0.100000)"
fill="#000000" stroke="none">
<path d="M3810 6993 c-51 -20 -98 -65 -1255 -1208 -2017 -1994 -2485 -2463
-2518 -2523 -67 -124 -27 -220 103 -247 19 -4 311 -9 648 -10 337 -1 614 -4
616 -6 2 -2 7 -41 10 -86 54 -675 464 -1299 1081 -1645 125 -70 403 -186 488
-203 59 -12 54 19 55 -390 0 -206 3 -394 7 -417 21 -122 121 -210 275 -242 53
-11 398 -13 1805 -12 l1740 1 48 24 c62 30 87 69 82 128 -8 92 -30 120 -407
499 l-359 361 -83 -28 c-102 -36 -244 -66 -351 -76 -145 -14 -381 -8 -500 12
-101 17 -258 55 -310 75 -11 4 -56 21 -100 38 -104 40 -305 146 -305 162 0 3
26 17 58 33 253 123 524 340 708 567 65 81 157 211 152 215 -4 4 -357 215
-393 235 -16 9 -101 60 -188 113 -88 53 -167 99 -177 102 -13 4 -33 -16 -86
-91 -79 -112 -214 -243 -329 -319 -82 -55 -249 -139 -296 -150 -25 -6 -28 -3
-43 42 -9 26 -22 58 -29 71 l-13 23 -13 -25 -14 -25 -36 27 c-20 14 -37 27
-39 28 -2 1 13 28 34 59 l38 56 -13 57 c-6 31 -14 66 -17 77 -28 124 -39 256
-38 440 1 198 22 323 69 420 18 39 36 84 40 102 3 17 7 255 7 527 1 273 4 496
8 496 36 0 221 -84 313 -142 45 -29 47 -32 30 -47 -34 -30 -197 -176 -231
-206 -18 -16 -49 -44 -69 -62 l-37 -32 28 -11 c15 -5 32 -10 37 -10 5 0 17 -4
27 -9 14 -8 244 -80 447 -141 33 -10 103 -32 155 -48 335 -106 647 -204 660
-207 8 -2 16 -4 18 -5 1 -2 5 -3 10 -4 4 -1 48 -15 97 -30 50 -16 108 -34 131
-41 l40 -12 -33 151 c-19 83 -36 165 -39 181 -3 17 -9 46 -14 65 -5 19 -11 46
-14 60 -2 14 -16 77 -30 140 -73 337 -88 407 -92 430 -3 14 -11 53 -19 86 -8
34 -16 73 -19 85 -2 13 -13 65 -25 114 -11 50 -22 101 -25 115 -2 14 -14 68
-25 120 -12 52 -21 96 -21 98 0 5 -37 -22 -73 -54 -17 -16 -59 -52 -92 -79
-33 -28 -64 -56 -68 -62 -13 -21 -26 -16 -96 36 -143 105 -307 197 -466 261
-44 17 -89 36 -100 40 -47 20 -227 70 -310 86 -49 9 -92 19 -95 21 -3 3 -5
392 -5 866 0 826 -1 864 -19 901 -26 51 -87 78 -136 59z m-214 -2658 c2 -6
-68 -33 -156 -61 l-159 -52 -10 31 c-21 58 -18 61 74 73 160 22 247 25 251 9z
m92 -247 c28 -112 31 -141 28 -248 -3 -106 -27 -226 -53 -266 -5 -8 -68 46
-173 149 l-165 161 -1 66 -2 66 162 56 c88 31 168 57 177 57 11 1 20 -13 27
-41z m-953 -360 c17 -6 33 -13 37 -17 6 -5 -48 -243 -67 -298 -2 -7 -39 7
-103 40 -163 85 -159 65 -35 190 76 77 111 106 122 101 9 -3 30 -11 46 -16z
m290 -67 c6 -1 10 -69 10 -184 l-1 -182 -31 2 c-59 5 -108 27 -107 48 2 23 3
28 45 196 33 134 29 127 84 120z m-5 -660 c13 -1 15 -68 16 -536 0 -342 -3
-535 -10 -535 -20 0 -202 104 -273 156 -259 192 -442 491 -492 804 -15 90 -14
108 6 112 14 2 708 2 753 -1z m765 -1126 c16 -13 26 -27 22 -31 -9 -10 -97
-18 -97 -9 0 10 34 65 40 65 3 -1 18 -12 35 -25z m11 -1027 l134 -132 -42 -43
c-23 -24 -37 -44 -30 -44 7 -1 15 -2 20 -4 64 -17 62 -15 62 -61 l0 -44 -37 5
c-21 3 -60 11 -86 17 l-48 12 -55 -55 -55 -55 -137 133 -136 133 51 52 c28 29
88 90 132 136 45 45 84 82 87 82 3 0 67 -59 140 -132z m1223 19 c-2 -3 -34
-23 -71 -45 l-66 -41 -16 24 c-26 39 -23 44 39 84 l60 39 29 -29 c17 -15 28
-30 25 -32z m-351 -157 c12 -32 20 -26 -96 -76 -31 -13 -33 -13 -42 12 -6 14
-10 31 -10 38 0 13 120 67 132 60 3 -2 11 -17 16 -34z m-344 -96 c3 -9 6 -26
6 -39 0 -24 -17 -31 -105 -41 l-40 -5 0 38 c1 38 1 38 55 49 76 16 77 16 84
-2z"/>
</g>
</svg>
