<?xml version="1.0" encoding="UTF-8" standalone="no"?>
<!-- Generator: Adobe Illustrator 18.1.1, SVG Export Plug-In . SVG Version: 6.00 Build 0)  -->

<svg
   xmlns:dc="http://purl.org/dc/elements/1.1/"
   xmlns:cc="http://creativecommons.org/ns#"
   xmlns:rdf="http://www.w3.org/1999/02/22-rdf-syntax-ns#"
   xmlns:svg="http://www.w3.org/2000/svg"
   xmlns="http://www.w3.org/2000/svg"
   xmlns:sodipodi="http://sodipodi.sourceforge.net/DTD/sodipodi-0.dtd"
   xmlns:inkscape="http://www.inkscape.org/namespaces/inkscape"
   version="1.1"
   id="Layer_1"
   x="0px"
   y="0px"
   viewBox="50 174 549.59998 316.79999"
   enable-background="new 50 174 820 240"
   xml:space="preserve"
   sodipodi:docname="aeroastro_logo.svg"
   inkscape:version="0.92.4 (unknown)"
   width="549.59998"
   height="316.79999"><metadata
   id="metadata949"><rdf:RDF><cc:Work
       rdf:about=""><dc:format>image/svg+xml</dc:format><dc:type
         rdf:resource="http://purl.org/dc/dcmitype/StillImage" /><dc:title></dc:title></cc:Work></rdf:RDF></metadata><defs
   id="defs947">
	
	
	
	
	
	
	
	
	
	
	
</defs><sodipodi:namedview
   pagecolor="#ffffff"
   bordercolor="#666666"
   borderopacity="1"
   objecttolerance="10"
   gridtolerance="10"
   guidetolerance="10"
   inkscape:pageopacity="0"
   inkscape:pageshadow="2"
   inkscape:window-width="1855"
   inkscape:window-height="1056"
   id="namedview945"
   showgrid="false"
   inkscape:zoom="1.1908713"
   inkscape:cx="463.26353"
   inkscape:cy="129.98241"
   inkscape:window-x="65"
   inkscape:window-y="24"
   inkscape:window-maximized="1"
   inkscape:current-layer="Layer_1" />
<g
   style="fill:#797472;fill-opacity:1"
   id="g908"
   transform="translate(-255.2,130)">
		<path
   inkscape:connector-curvature="0"
   style="fill:#797472;fill-opacity:1"
   id="path902"
   d="m 803.3,267 -1.5,-23.8 -8.5,23.8 H 788 L 779.5,243.2 778,267 h -5.4 l 2.3,-32.3 h 7.7 l 8.5,24.6 8.5,-24.6 h 7.7 l 2.3,32.3 z" />
		<path
   inkscape:connector-curvature="0"
   style="fill:#797472;fill-opacity:1"
   id="path904"
   d="m 815.6,267 v -32.3 h 6.1 V 267 Z" />
		<path
   inkscape:connector-curvature="0"
   style="fill:#797472;fill-opacity:1"
   id="path906"
   d="M 842.5,240.1 V 267 h -6.2 v -26.9 h -9.2 v -5.4 h 25.4 l 0.8,5.4 c 0,0 -10.8,0 -10.8,0 z" />
	</g><path
   inkscape:connector-curvature="0"
   style="fill:#005395;fill-opacity:1"
   id="path910"
   d="M 103.8,490 95.3,468.5 H 66.9 l -7.7,20.8 H 50 l 26.9,-69.2 h 9.2 L 113,487.7 Z M 81.5,431.6 70,460.8 h 22.3 z" /><path
   inkscape:connector-curvature="0"
   style="fill:#005395;fill-opacity:1"
   id="path912"
   d="M 122.3,489.3 V 420.1 H 160 v 8.5 h -27.7 v 20 h 21.5 l 1.5,8.5 H 132.2 V 480 h 28.4 v 8.5 h -38.4 v 0.8 z" /><path
   inkscape:connector-curvature="0"
   style="fill:#005395;fill-opacity:1"
   id="path914"
   d="m 221.4,488.5 -9.2,2.3 -21.5,-30 h -6.9 V 490 h -9.2 V 420.8 H 193 c 6.9,0 12.3,1.5 16.9,5.4 3.8,3.1 6.1,8.5 6.1,14.6 0,5.4 -1.5,9.2 -3.8,12.3 -3.1,3.1 -6.1,5.4 -10.8,6.9 z m -14.6,-47.7 c 0,-3.8 -1.5,-6.9 -3.8,-8.5 -2.3,-2.3 -6.1,-3.1 -10.8,-3.1 H 183 V 453 h 7.7 c 4.6,0 8.5,-0.8 10.8,-3.1 3.8,-2.1 5.3,-5.2 5.3,-9.1 z" /><path
   inkscape:connector-curvature="0"
   style="fill:#005395;fill-opacity:1"
   id="path916"
   d="m 291.4,454.7 c 0,5.4 -0.8,10 -2.3,14.6 -1.5,4.6 -3.8,8.5 -6.1,11.5 -3.1,3.1 -6.2,5.4 -10,7.7 -3.8,1.5 -8.5,2.3 -13.1,2.3 -4.6,0 -9.2,-0.8 -13.1,-2.3 -3.8,-1.5 -6.9,-3.8 -10,-6.9 -3.1,-3.1 -4.6,-6.9 -6.1,-11.5 -1.5,-4.6 -2.3,-9.2 -2.3,-14.6 0,-5.4 0.8,-10 2.3,-14.6 1.5,-4.6 3.8,-8.5 6.1,-11.5 3.1,-3.1 6.1,-5.4 10,-6.9 3.8,-1.5 8.5,-2.3 13.1,-2.3 4.6,0 9.2,0.8 13.1,2.3 3.8,1.5 6.9,3.8 10,6.9 3.1,3.1 4.6,6.9 6.1,11.5 1.5,3.8 2.3,9.2 2.3,13.8 z m -9.2,0.7 c 0,-3.8 -0.8,-7.7 -1.5,-11.5 -0.8,-3.1 -2.3,-6.1 -4.6,-8.5 -1.5,-2.3 -3.8,-3.8 -6.9,-5.4 -3.1,-1.5 -6.1,-1.5 -9.2,-1.5 -3.1,0 -6.1,0.8 -9.2,1.5 -3.1,1.5 -5.4,3.1 -6.9,5.4 -1.5,2.3 -3.1,5.4 -4.6,8.5 -0.8,3.1 -1.5,6.9 -1.5,11.5 0,3.8 0.8,7.7 1.5,11.5 0.8,3.1 2.3,6.1 4.6,8.5 1.5,2.3 3.8,3.8 6.9,5.4 3.1,1.5 6.1,1.5 9.2,1.5 3.1,0 6.1,-0.8 9.2,-1.5 3.1,-1.5 5.4,-3.1 6.9,-5.4 1.5,-2.3 3.1,-5.4 4.6,-8.5 0.7,-3.8 1.5,-7.6 1.5,-11.5 z" /><path
   inkscape:connector-curvature="0"
   style="fill:#797472;fill-opacity:1"
   id="path918"
   d="m 350.6,490 -8.5,-21.5 h -28.4 l -7.7,20.8 h -9.2 l 26.9,-69.2 h 9.2 l 26.9,67.6 z m -22.3,-58.4 -10.8,29.2 h 22.3 z" /><path
   inkscape:connector-curvature="0"
   style="fill:#797472;fill-opacity:1"
   id="path920"
   d="m 409,470.8 c 0,3.1 -0.8,5.4 -1.5,7.7 -0.8,2.3 -2.3,4.6 -4.6,6.1 -1.5,1.5 -3.8,3.1 -6.9,3.8 -3.1,0.8 -5.4,1.5 -9.2,1.5 -3.8,0 -7.7,-0.8 -10.8,-1.5 -3.1,-0.8 -6.1,-1.5 -8.5,-3.1 l 1.5,-9.2 c 2.3,1.5 5.4,3.1 8.5,3.8 3.1,1.5 6.1,1.5 10,1.5 3.8,0 6.9,-0.8 9.2,-3.1 2.3,-1.5 3.8,-4.6 3.8,-7.7 0,-1.5 0,-3.1 -0.8,-3.8 -0.8,-1.5 -0.8,-2.3 -2.3,-3.1 -0.8,-0.8 -2.3,-2.3 -3.8,-3.1 -1.5,-0.8 -3.8,-2.3 -6.1,-3.1 -3.1,-1.5 -6.2,-3.1 -8.5,-4.6 -2.3,-1.5 -3.8,-3.1 -5.4,-4.6 -1.5,-1.5 -2.3,-3.1 -3.1,-5.4 -0.8,-1.5 -0.8,-3.8 -0.8,-6.1 0,-3.1 0.8,-5.4 1.5,-7.7 0.8,-2.3 2.3,-3.8 4.6,-5.4 1.5,-1.5 3.8,-3.1 6.9,-3.8 2.3,-0.8 5.4,-1.5 8.5,-1.5 3.1,0 6.2,0 9.2,0.8 2.3,0.8 4.6,1.5 6.9,3.1 l -1.5,9.2 c -2.3,-1.5 -3.8,-2.3 -6.9,-3.8 -2.3,-0.8 -5.4,-1.5 -7.7,-1.5 -3.8,0 -6.9,0.8 -8.5,3.1 -1.5,1.5 -3.1,3.8 -3.1,6.9 0,1.5 0,2.3 0.8,3.8 0,0.8 0.8,2.3 2.3,3.1 0.8,0.8 2.3,1.5 3.8,3.1 1.5,0.8 3.8,2.3 6.1,3.1 3.1,1.5 6.1,3.1 8.5,4.6 2.3,1.5 3.8,3.1 5.4,4.6 1.5,1.5 2.3,3.1 3.1,5.4 -0.6,2.3 -0.6,4.6 -0.6,6.9 z" /><path
   inkscape:connector-curvature="0"
   style="fill:#797472;fill-opacity:1"
   id="path922"
   d="M 447.4,429.3 V 490 h -9.2 v -60.7 h -22.3 v -8.5 h 52.3 l 1.5,8.5 z" /><path
   inkscape:connector-curvature="0"
   style="fill:#797472;fill-opacity:1"
   id="path924"
   d="m 529.7,488.5 -9.2,2.3 -20.8,-30 h -6.9 V 490 h -10 v -69.2 h 18.4 c 6.9,0 12.3,1.5 16.9,5.4 3.8,3.1 6.1,8.5 6.1,14.6 0,5.4 -1.5,9.2 -3.8,12.3 -3.1,3.1 -6.2,5.4 -10.8,6.9 z m -14.6,-47.7 c 0,-3.8 -1.5,-6.9 -3.8,-8.5 -2.3,-2.3 -6.2,-3.1 -10.8,-3.1 h -9.2 V 453 h 7.7 c 4.6,0 8.5,-0.8 10.8,-3.1 3.7,-2.1 5.3,-5.2 5.3,-9.1 z" /><path
   inkscape:connector-curvature="0"
   style="fill:#797472;fill-opacity:1"
   id="path926"
   d="m 599.6,454.7 c 0,5.4 -0.8,10 -2.3,14.6 -1.5,4.6 -3.8,8.5 -6.2,11.5 -3.1,3.1 -6.1,5.4 -10,7.7 -3.8,1.5 -8.5,2.3 -13.1,2.3 -4.6,0 -9.2,-0.8 -13.1,-2.3 -3.8,-1.5 -6.9,-3.8 -10,-6.9 -3.1,-3.1 -4.6,-6.9 -6.1,-11.5 -1.5,-4.6 -2.3,-9.2 -2.3,-14.6 0,-5.4 0.8,-10 2.3,-14.6 1.5,-4.6 3.8,-8.5 6.1,-11.5 3.1,-3.1 6.2,-5.4 10,-6.9 3.8,-1.5 8.5,-2.3 13.1,-2.3 4.6,0 9.2,0.8 13.1,2.3 3.8,1.5 6.9,3.8 10,6.9 3.1,3.1 4.6,6.9 6.2,11.5 1.6,3.8 2.3,9.2 2.3,13.8 z m -9.9,0.7 c 0,-3.8 -0.8,-7.7 -1.5,-11.5 -0.8,-3.1 -2.3,-6.1 -4.6,-8.5 -1.5,-2.3 -3.8,-3.8 -6.9,-5.4 -3.1,-1.5 -6.1,-1.5 -9.2,-1.5 -3.1,0 -6.1,0.8 -9.2,1.5 -3.1,1.5 -5.4,3.1 -6.9,5.4 -1.5,2.3 -3.1,5.4 -4.6,8.5 -0.8,3.1 -1.5,6.9 -1.5,11.5 0,3.8 0.8,7.7 1.5,11.5 0.8,3.1 2.3,6.1 4.6,8.5 1.5,2.3 3.8,3.8 6.9,5.4 3.1,1.5 6.1,1.5 9.2,1.5 3.1,0 6.1,-0.8 9.2,-1.5 3.1,-1.5 5.4,-3.1 6.9,-5.4 1.5,-2.3 3.1,-5.4 4.6,-8.5 0.7,-3.8 1.5,-7.6 1.5,-11.5 z" /><g
   style="fill:#005395;fill-opacity:1"
   id="g940"
   transform="translate(-8.4,-7.7)">
		<g
   style="fill:#005395;fill-opacity:1"
   id="g930">
			<path
   inkscape:connector-curvature="0"
   style="fill:#005395;fill-opacity:1"
   id="path928"
   d="m 169.9,181.7 c -61.5,0 -111.5,50 -111.5,111.5 0,38.4 19.2,72.3 49.2,92.2 1.5,-2.3 3.1,-4.6 3.1,-4.6 12.3,-21.5 23.1,-40.7 24.6,-58.4 1.5,-21.5 -10,-31.5 -22.3,-46.1 -1.5,-1.5 -23.1,-20 -23.1,-20 20.8,-1.5 100.7,26.9 99.2,44.6 -0.8,11.5 -38.4,56.1 -70.7,90.7 15.4,8.5 33.1,13.1 51.5,13.1 61.5,0 111.5,-50 111.5,-111.5 0,-61.5 -50,-111.5 -111.5,-111.5 z m 47.7,139.9 c 0,0 6.9,-17.7 6.9,-18.4 3.1,-11.5 6.9,-22.3 3.8,-30.7 -2.3,-6.9 -8.5,-9.2 -16.1,-12.3 -0.8,0 -20.8,-5.4 -20.8,-6.1 10.8,-3.1 59.2,-3.8 62.3,3.8 3.1,6.8 -26.9,55.2 -36.1,63.7 z" />
		</g>
		<g
   style="fill:#005395;fill-opacity:1"
   id="g938">
			<g
   style="fill:#005395;fill-opacity:1"
   id="g936"
   enable-background="new    ">
				<g
   style="fill:#005395;fill-opacity:1"
   id="g934">
					<path
   inkscape:connector-curvature="0"
   style="fill:#005395;fill-opacity:1"
   id="path932"
   d="m 306.7,221.7 c 3.8,-1.5 7.7,-3.8 11.5,-6.1 1.5,-0.8 3.8,-2.3 5.4,-3.8 0.8,-0.8 4.6,-3.8 4.6,-3.1 0,0.8 -1.5,1.5 -2.3,2.3 -0.8,0.8 -1.5,1.5 -2.3,2.3 -1.5,1.5 -3.1,3.1 -4.6,4.6 -3.1,3.1 -5.4,6.1 -8.5,10 -3.1,3.8 -5.4,7.7 -7.7,11.5 -1.5,2.3 -2.3,3.8 -3.8,6.1 -0.8,0.8 -0.8,2.3 -1.5,3.1 0,0 -1.5,3.1 -1.5,2.3 0.8,-5.4 1.5,-10 -1.5,-14.6 -1.5,-2.3 -3.1,-3.8 -5.4,-5.4 -0.8,0 -1.5,0 -3.1,0 -0.8,0 -1.5,0 -1.5,0 -0.8,0 -1.5,0 -1.5,0 0,-0.8 4.6,-1.5 5.4,-1.5 2.3,-0.8 3.8,-0.8 6.1,-1.5 3.8,-2.4 7.6,-3.9 12.2,-6.2 z" />
				</g>
			</g>
		</g>
	</g>
</svg>