<?xml version="1.0" encoding="utf-8"?>
<!-- Generator: Adobe Illustrator 27.5.0, SVG Export Plug-In . SVG Version: 6.00 Build 0)  -->
<svg version="1.1" id="Layer_1" xmlns="http://www.w3.org/2000/svg" xmlns:xlink="http://www.w3.org/1999/xlink" x="0px" y="0px"
	 viewBox="0 0 3660 1040" enable-background="new 0 0 3660 1040" xml:space="preserve">
<path d="M1737.06274,160l28.2522,100.41949c3.35645,12.86707,6.71301,25.73413,8.95105,36.36368
	c1.39844,6.15405,2.51697,12.02808,3.63599,17.62259h0.55957c1.1189-5.59451,2.23792-11.46854,3.63647-17.62259
	c2.23755-10.62955,5.03503-23.49661,8.67102-36.36368L1819.02124,160h57.90173v200h-37.76221V245.31491
	c0-8.11203,0-18.18207,0.83899-26.85312c0.28003-4.75552,0.55957-9.79054,0.8396-14.54558h-0.55957
	c-0.83948,4.75504-1.95801,9.23056-2.79749,13.70609c-1.95801,7.83252-3.91602,16.78357-5.87402,24.33562L1797.20264,360h-38.88074
	l-33.56665-118.04208c-2.23755-7.55205-3.91602-16.5031-5.87402-24.33562c-0.83899-4.47552-1.95801-8.95105-2.79749-13.70609
	h-0.55908c0.27954,4.75504,0.55908,9.79005,0.83899,14.54558c0.27954,8.67105,0.83899,18.74109,0.83899,26.85312V360H1680V160
	H1737.06274z M1988.81104,344.05594h-0.55945c-3.6366,5.59451-8.11206,10.34955-14.54565,13.70605
	c-6.7135,3.35703-15.38452,5.59454-27.69214,5.59454c-29.65063,0-50.07019-15.10458-50.07019-43.91574
	c0-15.66458,6.15405-26.29413,16.78357-33.28717c10.62903-6.99252,24.61511-10.62906,40.83875-12.86707
	c24.05603-3.35651,34.68567-5.31451,34.68567-16.22357c0-10.62955-7.83252-17.06308-24.05615-17.06308
	c-17.9021,0-26.57361,6.15402-27.69214,20.14011h-33.84619c0.27954-12.8671,5.5946-24.33563,15.66406-33.00717
	c10.07007-8.67105,25.17517-14.26558,46.15381-14.26558c43.07715,0,60.4198,19.02109,60.4198,52.86726v73.00687
	c0,10.90906,1.67847,17.34259,5.03503,19.86011V360h-36.64319C1991.04858,356.923,1989.65002,350.48947,1988.81104,344.05594z
	 M1980.41907,328.11185c5.59448-5.03503,8.67151-11.74808,8.67151-18.74109v-21.5386
	c-6.7135,4.19601-16.78308,6.15402-26.57361,8.39154c-20.13965,4.47552-29.65015,8.95105-29.65015,22.37759
	c0,13.42657,8.95105,18.1821,22.37756,18.1821C1966.15344,336.78339,1974.54504,333.42636,1980.41907,328.11185z
	 M2038.31885,313.56628h35.24463c2.51758,16.78357,13.98608,23.77661,31.32861,23.77661c16.78369,0,26.2937-6.43402,26.2937-16.5036
	c0-6.71353-4.75488-10.62955-11.46802-13.14706c-6.99292-2.51749-16.50366-3.91602-26.29419-5.87402
	c-13.14648-2.51752-25.4541-5.31451-34.9646-11.74805c-9.79053-6.43353-15.94409-15.94409-15.94409-31.60867
	c0-15.66406,6.15356-26.85312,17.0625-34.68517c10.62964-7.55254,24.89526-11.18906,41.39868-11.18906
	c38.32178,0,58.46191,18.18208,61.53882,47.55275h-34.40552c-1.95801-15.66458-11.18921-20.97913-27.69263-20.97913
	c-15.10474,0-24.61523,5.31454-24.61523,15.94409c0,6.43353,4.75513,9.51053,12.30762,11.74805
	c7.27246,2.51752,17.06299,3.63654,27.13306,5.87454c12.02759,2.51703,24.61523,5.31451,34.40527,11.74805
	c9.79053,6.71304,16.22412,16.78308,16.22412,33.56619c0,14.54556-6.15405,26.01413-16.78369,33.84616
	c-10.90894,7.83252-25.73413,12.30804-43.63623,12.30804C2063.4939,364.19601,2040.55688,344.33591,2038.31885,313.56628z
	 M2174.25903,313.56628h35.24487c2.51733,16.78357,13.98608,23.77661,31.32861,23.77661
	c16.78345,0,26.29419-6.43402,26.29419-16.5036c0-6.71353-4.75562-10.62955-11.46875-13.14706
	c-6.99292-2.51749-16.50342-3.91602-26.29395-5.87402c-13.14673-2.51752-25.45435-5.31451-34.96484-11.74805
	c-9.79053-6.43353-15.94409-15.94409-15.94409-31.60867c0-15.66406,6.15356-26.85312,17.06323-34.68517
	c10.62891-7.55254,24.89453-11.18906,41.39819-11.18906c38.32153,0,58.46167,18.18208,61.53833,47.55275h-34.40527
	c-1.95801-15.66458-11.18896-20.97913-27.69263-20.97913c-15.10449,0-24.61499,5.31454-24.61499,15.94409
	c0,6.43353,4.75488,9.51053,12.30737,11.74805c7.27319,2.51752,17.06323,3.63654,27.1333,5.87454
	c12.02759,2.51703,24.61499,5.31451,34.40503,11.74805c9.79053,6.71304,16.22412,16.78308,16.22412,33.56619
	c0,14.54556-6.15405,26.01413-16.78296,33.84616c-10.90967,7.83252-25.73462,12.30804-43.63672,12.30804
	C2199.43433,364.19601,2176.49707,344.33591,2174.25903,313.56628z M2405.02539,344.05594h-0.55957
	c-3.63647,5.59451-8.11206,10.34955-14.54541,13.70605c-6.71362,3.35703-15.38477,5.59454-27.69214,5.59454
	c-29.65063,0-50.07031-15.10458-50.07031-43.91574c0-15.66458,6.15405-26.29413,16.78345-33.28717
	c10.62915-6.99252,24.61523-10.62906,40.83887-12.86707c24.05615-3.35651,34.68555-5.31451,34.68555-16.22357
	c0-10.62955-7.83252-17.06308-24.05615-17.06308c-17.9021,0-26.57349,6.15402-27.69214,20.14011h-33.84619
	c0.27954-12.8671,5.59473-24.33563,15.66431-33.00717c10.06982-8.67105,25.17505-14.26558,46.15356-14.26558
	c43.07739,0,60.41992,19.02109,60.41992,52.86726v73.00687c0,10.90906,1.67847,17.34259,5.03491,19.86011V360h-36.64307
	C2407.26294,356.923,2405.8645,350.48947,2405.02539,344.05594z M2396.6333,328.11185
	c5.59448-5.03503,8.67163-11.74808,8.67163-18.74109v-21.5386c-6.71362,4.19601-16.7832,6.15402-26.57373,8.39154
	c-20.13965,4.47552-29.65015,8.95105-29.65015,22.37759c0,13.42657,8.95117,18.1821,22.37769,18.1821
	C2382.36768,336.78339,2390.75928,333.42636,2396.6333,328.11185z M2476.35083,342.0979
	c-12.86719-13.42654-19.86011-32.44763-19.86011-53.70627c0-21.25861,6.99292-40.27969,19.58057-53.98576
	c12.30762-13.42657,29.93018-21.8186,52.02783-21.8186c18.74146,0,33.56665,5.59453,44.75513,14.54558
	c10.90918,9.23105,17.9021,22.37759,20.41968,38.04218h-37.20264c-2.51758-12.86707-12.02808-22.09811-26.2937-22.09811
	c-23.21655,0-34.6853,17.06311-34.6853,45.31473c0,27.41266,10.62915,45.31473,34.12573,45.31473
	c15.66455,0,26.2937-7.83203,28.81128-24.3356h36.64307c-1.11841,15.38458-7.83203,28.81113-18.74097,38.6012
	c-11.18872,10.07004-26.85327,16.22406-45.87427,16.22406C2507.11987,364.19601,2489.21777,355.80399,2476.35083,342.0979z
	 M2648.37915,235.24487c10.62964-15.38458,21.81812-22.65761,41.67822-22.65761c15.10498,0,27.13306,5.59453,35.8042,15.10507
	c8.67163,9.79005,13.70654,22.93712,13.70654,38.60121V360h-38.04224v-88.11194c0-15.66409-8.6709-26.29364-24.89502-26.29364
	c-16.7832,0-29.09058,13.14706-29.09058,33.00717V360h-38.04224V160h38.04224v75.24487H2648.37915z M2852.01514,343.21692h-0.83887
	c-9.79053,13.14658-20.97925,20.6991-41.11938,20.6991c-32.16748,0-49.78955-19.86008-49.78955-51.74826v-95.66397h37.76221
	v89.23044c0,16.78311,7.27246,26.01413,23.77612,26.01413c17.9021,0,28.81104-13.42657,28.81104-32.44766v-82.79691h38.04175V360
	h-36.64331V343.21692z M2902.64502,313.56628h35.24463c2.51758,16.78357,13.98608,23.77661,31.32861,23.77661
	c16.78369,0,26.29419-6.43402,26.29419-16.5036c0-6.71353-4.75562-10.62955-11.46851-13.14706
	c-6.99316-2.51749-16.50366-3.91602-26.29419-5.87402c-13.14648-2.51752-25.4541-5.31451-34.9646-11.74805
	c-9.79077-6.43353-15.94409-15.94409-15.94409-31.60867c0-15.66406,6.15332-26.85312,17.06299-34.68517
	c10.62915-7.55254,24.89453-11.18906,41.39819-11.18906c38.32178,0,58.46191,18.18208,61.53833,47.55275h-34.40527
	c-1.95801-15.66458-11.18896-20.97913-27.69263-20.97913c-15.10449,0-24.61499,5.31454-24.61499,15.94409
	c0,6.43353,4.75488,9.51053,12.30762,11.74805c7.27295,2.51752,17.06299,3.63654,27.13306,5.87454
	c12.02759,2.51703,24.61499,5.31451,34.40527,11.74805c9.79053,6.71304,16.22388,16.78308,16.22388,33.56619
	c0,14.54556-6.15405,26.01413-16.78296,33.84616c-10.90967,7.83252-25.73462,12.30804-43.63672,12.30804
	C2927.82007,364.19601,2904.88306,344.33591,2902.64502,313.56628z M3059.28198,342.0979
	c-12.86719-13.42654-19.30078-32.72714-19.30078-53.98575c0-21.25912,7.27319-40.27972,19.86011-53.70628
	c12.30811-13.42657,29.93018-21.8186,50.90942-21.8186c23.21655,0,40.55908,8.67154,52.58716,24.05611
	s18.18213,36.64319,18.18213,62.37781h-104.05615c3.07715,22.37762,14.8252,35.8042,36.64331,35.8042
	c15.10498,0,23.49658-6.71353,27.69263-17.62259h37.48218c-2.51758,12.86707-9.5105,24.33563-20.41968,33.00717
	c-11.18848,8.67105-26.01343,13.98605-44.4751,13.98605C3090.33105,364.19601,3072.14941,355.80399,3059.28198,342.0979z
	 M3078.02344,272.72757h63.77637c-1.1189-18.46161-12.86768-30.76965-30.48975-30.76965
	C3091.17017,241.95792,3081.38013,253.70645,3078.02344,272.72757z M3206.13477,216.50378v-44.75523h37.20264v44.75523h24.61548
	v26.57312h-24.61548v74.68539c0,10.90906,5.59448,14.26556,14.26611,14.26556h7.27246c1.39844,0,2.51758,0,3.91602-0.27951v27.97214
	C3266.83398,360,3264.87598,360,3262.63843,360c-4.19604,0.27951-10.07007,0.27951-17.62256,0.27951
	c-9.23047,0-18.74121-1.67801-26.2937-6.99255c-7.55249-5.315-12.5874-13.98605-12.5874-27.41263V243.0769h-19.86011v-26.57312
	H3206.13477z M3294.52417,216.50378v-44.75523h37.20264v44.75523h24.61572v26.57312h-24.61572v74.68539
	c0,10.90906,5.59448,14.26556,14.26611,14.26556h7.27246c1.39868,0,2.51758,0,3.91602-0.27951v27.97214
	C3355.22339,360,3353.26538,360,3351.02783,360c-4.19604,0.27951-10.07007,0.27951-17.62256,0.27951
	c-9.23047,0-18.74097-1.67801-26.29346-6.99255c-7.55273-5.315-12.58765-13.98605-12.58765-27.41263V243.0769h-19.86011v-26.57312
	H3294.52417z M3366.68555,313.56628h35.24487c2.51733,16.78357,13.98608,23.77661,31.32861,23.77661
	c16.78345,0,26.29419-6.43402,26.29419-16.5036c0-6.71353-4.75562-10.62955-11.46875-13.14706
	c-6.99292-2.51749-16.50342-3.91602-26.29395-5.87402c-13.14673-2.51752-25.4541-5.31451-34.96484-11.74805
	c-9.79053-6.43353-15.94409-15.94409-15.94409-31.60867c0-15.66406,6.15356-26.85312,17.06323-34.68517
	c10.62891-7.55254,24.89453-11.18906,41.39819-11.18906c38.32153,0,58.46167,18.18208,61.53833,47.55275h-34.40527
	c-1.95801-15.66458-11.18896-20.97913-27.69263-20.97913c-15.10449,0-24.61499,5.31454-24.61499,15.94409
	c0,6.43353,4.75488,9.51053,12.30737,11.74805c7.27319,2.51752,17.06323,3.63654,27.1333,5.87454
	c12.02759,2.51703,24.61499,5.31451,34.40503,11.74805c9.79053,6.71304,16.22412,16.78308,16.22412,33.56619
	c0,14.54556-6.15405,26.01413-16.78296,33.84616c-10.90967,7.83252-25.73462,12.30804-43.63672,12.30804
	C3391.86084,364.19601,3368.92358,344.33591,3366.68555,313.56628z M1720.55969,420v200H1680V420H1720.55969z M1784.89258,496.08386
	c9.79004-15.66406,22.6571-23.49658,42.51721-23.49658c15.1051,0,27.13318,5.59451,35.8042,15.10507
	c8.67151,9.79007,13.70654,22.9371,13.70654,38.60117V620h-38.04211v-88.11194c0-15.66406-8.67114-26.29364-24.89514-26.29364
	c-16.78308,0-29.0907,13.14709-29.0907,33.00714V620h-38.04211V476.50378h37.20264v19.58008H1784.89258z M1889.78711,573.56628
	h35.24475c2.51746,16.78357,13.98596,23.77661,31.32861,23.77661c16.78357,0,26.29407-6.43402,26.29407-16.5036
	c0-6.7135-4.75549-10.62952-11.46851-13.14703c-6.99304-2.51752-16.50354-3.91602-26.29407-5.87402
	c-13.14661-2.51752-25.45422-5.31458-34.96472-11.74811c-9.79053-6.43353-15.94409-15.94409-15.94409-31.60864
	c0-15.66406,6.15356-26.85312,17.06311-34.68518c10.62903-7.55252,24.89465-11.18903,41.39819-11.18903
	c38.32166,0,58.46179,18.18207,61.53833,47.55273h-34.40527c-1.95801-15.66461-11.18896-20.97913-27.69263-20.97913
	c-15.10449,0-24.61511,5.31451-24.61511,15.94409c0,6.43353,4.75513,9.51056,12.30762,11.74805
	c7.27307,2.51752,17.06311,3.63654,27.13306,5.87451c12.02759,2.51703,24.61523,5.31458,34.40527,11.74811
	c9.79053,6.71301,16.224,16.78308,16.224,33.56616c0,14.54553-6.15393,26.0141-16.78308,33.84613
	c-10.90955,7.83258-25.73462,12.30811-43.63672,12.30811C1914.96228,624.19604,1892.02515,604.33594,1889.78711,573.56628z
	 M2041.39343,476.50378v-44.75522h37.20276v44.75522h24.61548v26.57312h-24.61548v74.68536
	c0,10.90906,5.59448,14.26562,14.26611,14.26562h7.27246c1.39844,0,2.51758,0,3.91602-0.27954v27.97217
	C2102.09277,620,2100.13477,620,2097.89722,620c-4.19604,0.27948-10.07007,0.27948-17.62256,0.27948
	c-9.23047,0-18.74121-1.67798-26.2937-6.99249c-7.55249-5.31506-12.58752-13.98608-12.58752-27.41266V503.0769h-19.86011v-26.57312
	H2041.39343z M2159.1521,425.31503v34.12567h-38.04224v-34.12567H2159.1521z M2159.1521,476.50378V620h-38.04224V476.50378
	H2159.1521z M2193.55786,476.50378v-44.75522h37.20264v44.75522h24.61572v26.57312h-24.61572v74.68536
	c0,10.90906,5.59448,14.26562,14.26611,14.26562h7.27246c1.39844,0,2.51758,0,3.91602-0.27954v27.97217
	C2254.25708,620,2252.29907,620,2250.06152,620c-4.19604,0.27948-10.07007,0.27948-17.62256,0.27948
	c-9.23047,0-18.74097-1.67798-26.2937-6.99249c-7.55249-5.31506-12.5874-13.98608-12.5874-27.41266V503.0769h-19.86011v-26.57312
	H2193.55786z M2363.90381,603.21692h-0.83911c-9.79053,13.14655-20.979,20.6991-41.11914,20.6991
	c-32.16772,0-49.79028-19.86011-49.79028-51.74823v-95.664h37.7627v89.23047c0,16.78308,7.27246,26.0141,23.77612,26.0141
	c17.9021,0,28.81104-13.42657,28.81104-32.44763v-82.79694h38.04175V620h-36.64307V603.21692z M2434.95361,476.50378v-44.75522
	h37.20264v44.75522h24.61572v26.57312h-24.61572v74.68536c0,10.90906,5.59448,14.26562,14.26611,14.26562h7.27246
	c1.39844,0,2.51758,0,3.91602-0.27954v27.97217C2495.65283,620,2493.69482,620,2491.45728,620
	c-4.19604,0.27948-10.07007,0.27948-17.62256,0.27948c-9.23047,0-18.74097-1.67798-26.2937-6.99249
	c-7.55249-5.31506-12.5874-13.98608-12.5874-27.41266V503.0769h-19.86011v-26.57312H2434.95361z M2525.58252,602.0979
	c-12.86743-13.42657-19.30103-32.72717-19.30103-53.98578c0-21.25909,7.27295-40.27966,19.86011-53.70624
	c12.30811-13.42657,29.93018-21.8186,50.90918-21.8186c23.21655,0,40.55933,8.67154,52.5874,24.05609
	c12.02783,15.38458,18.18188,36.64319,18.18188,62.37781h-104.05591c3.0769,22.37762,14.82495,35.8042,36.64307,35.8042
	c15.10522,0,23.49683-6.71356,27.69263-17.62262h37.48218c-2.51733,12.86713-9.5105,24.33563-20.41943,33.0072
	c-11.18872,8.67102-26.01367,13.98608-44.47534,13.98608C2556.6311,624.19604,2538.44971,615.80402,2525.58252,602.0979z
	 M2544.32373,532.72754h63.77612c-1.1189-18.46155-12.86743-30.76965-30.4895-30.76965
	C2557.47021,501.95789,2547.68018,513.70648,2544.32373,532.72754z M2723.06299,602.0979
	c-13.42651-13.42657-20.979-32.44763-20.979-53.70624s7.55249-40.27972,20.979-53.98578
	c13.14722-13.42657,31.60864-21.8186,53.98633-21.8186s40.83862,8.39203,54.26538,21.8186
	c13.14697,13.70605,20.69946,32.72717,20.69946,53.98578s-7.55249,40.27966-20.69946,53.70624
	c-13.42676,13.70612-31.8877,22.09814-54.26538,22.09814S2736.21021,615.80402,2723.06299,602.0979z M2813.4126,548.39166
	c0-28.25165-12.86719-46.99323-36.36328-46.99323c-23.49658,0-36.36377,18.74158-36.36377,46.99323
	c0,27.97211,12.86719,46.7132,36.36377,46.7132C2800.54541,595.10486,2813.4126,576.36377,2813.4126,548.39166z
	 M2876.34888,476.50378v-12.86755c0-17.6221,6.71313-29.37018,18.18164-36.36319
	c11.18896-6.71353,27.13306-8.95105,45.59424-6.99304v29.37064c-17.9021-0.83948-25.73413,1.11853-25.73413,16.2236v10.62955
	h25.73413v27.41217h-25.73413V620h-38.04175V503.91595h-19.58057v-27.41217H2876.34888z M1780.69897,680v34.12616h-60.13977V880
	H1680V714.12616h-60.13977V680H1780.69897z M1776.505,862.0979c-12.86755-13.42657-19.30115-32.72717-19.30115-53.98578
	c0-21.25909,7.27307-40.27966,19.86011-53.70624c12.30811-13.42657,29.93018-21.8186,50.9093-21.8186
	c23.21655,0,40.5592,8.67151,52.58716,24.05609c12.02808,15.38458,18.18213,36.64319,18.18213,62.37781h-104.05603
	c3.07703,22.37762,14.82507,35.8042,36.64319,35.8042c15.1051,0,23.49658-6.71356,27.69263-17.62262h37.48218
	c-2.51746,12.86707-9.5105,24.33563-20.41956,33.0072c-11.1886,8.67102-26.01367,13.98608-44.47522,13.98608
	C1807.55359,884.19604,1789.37207,875.80396,1776.505,862.0979z M1795.24609,792.72754h63.77625
	c-1.11902-18.46155-12.86755-30.76965-30.48962-30.76965C1808.39258,761.95789,1798.60254,773.70648,1795.24609,792.72754z
	 M1927.55127,862.0979c-12.86707-13.42657-19.86011-32.44763-19.86011-53.70624s6.99304-40.27972,19.58057-53.98578
	c12.30762-13.42657,29.93018-21.8186,52.02783-21.8186c18.74158,0,33.56665,5.59448,44.75525,14.54553
	c10.90906,9.23108,17.90198,22.37762,20.41956,38.04224h-37.20276c-2.51746-12.86707-12.02795-22.09814-26.29358-22.09814
	c-23.21667,0-34.68518,17.06311-34.68518,45.31476c0,27.4126,10.62903,45.3147,34.12573,45.3147
	c15.66455,0,26.29358-7.83203,28.81116-24.33563h36.64319c-1.11853,15.38458-7.83215,28.81116-18.74121,38.6012
	c-11.18848,10.07007-26.85303,16.22412-45.87415,16.22412C1958.32092,884.19604,1940.41882,875.80396,1927.55127,862.0979z
	 M2099.58008,755.24487c10.62964-15.38458,21.81812-22.65759,41.67822-22.65759c15.10498,0,27.13306,5.59448,35.8042,15.10504
	c8.67163,9.79004,13.70654,22.93713,13.70654,38.6012V880h-38.04224v-88.11194c0-15.66406-8.6709-26.29364-24.89502-26.29364
	c-16.7832,0-29.09058,13.14709-29.09058,33.00714V880h-38.04224V680h38.04224v75.24487H2099.58008z M2250.62842,756.08386
	c9.79004-15.66406,22.65698-23.49658,42.51709-23.49658c15.10522,0,27.1333,5.59448,35.8042,15.10504
	c8.67163,9.79004,13.70654,22.93713,13.70654,38.6012V880h-38.04199v-88.11194c0-15.66406-8.67114-26.29364-24.89526-26.29364
	c-16.78296,0-29.09058,13.14709-29.09058,33.00714V880h-38.04224V736.50378h37.20264v19.58008H2250.62842z M2378.45996,862.0979
	c-13.42651-13.42657-20.979-32.44763-20.979-53.70624s7.55249-40.27972,20.979-53.98578
	c13.14722-13.42657,31.60864-21.8186,53.98633-21.8186s40.83862,8.39203,54.26538,21.8186
	c13.14697,13.70605,20.69946,32.72717,20.69946,53.98578s-7.55249,40.27966-20.69946,53.70624
	c-13.42676,13.70605-31.8877,22.09814-54.26538,22.09814S2391.60718,875.80396,2378.45996,862.0979z M2468.80957,808.39166
	c0-28.25165-12.86719-46.99323-36.36328-46.99323c-23.49658,0-36.36377,18.74158-36.36377,46.99323
	c0,27.97211,12.86719,46.7132,36.36377,46.7132C2455.94238,855.10486,2468.80957,836.36377,2468.80957,808.39166z M2561.95459,680
	v200h-38.04224V680H2561.95459z M2599.43628,862.0979c-13.42651-13.42657-20.97925-32.44763-20.97925-53.70624
	s7.55273-40.27972,20.97925-53.98578c13.14697-13.42657,31.60864-21.8186,53.98608-21.8186
	c22.37769,0,40.83887,8.39203,54.26538,21.8186c13.14697,13.70605,20.69971,32.72717,20.69971,53.98578
	s-7.55273,40.27966-20.69971,53.70624c-13.42651,13.70605-31.8877,22.09814-54.26538,22.09814
	C2631.04492,884.19604,2612.58325,875.80396,2599.43628,862.0979z M2689.78564,808.39166
	c0-28.25165-12.86694-46.99323-36.36328-46.99323c-23.49658,0-36.36353,18.74158-36.36353,46.99323
	c0,27.97211,12.86694,46.7132,36.36353,46.7132C2676.9187,855.10486,2689.78564,836.36377,2689.78564,808.39166z
	 M2740.41357,884.19604h37.76196c3.07715,8.95099,10.90918,15.94403,28.81128,15.94403
	c21.25854,0,31.88818-9.79053,31.88818-29.93011v-15.66461h-0.83911c-8.67139,9.79059-19.021,16.78314-37.48267,16.78314
	c-16.22363,0-31.60815-6.15356-43.35669-18.18164c-12.02759-11.74805-19.86011-28.53162-19.86011-50.34973
	c0-21.25861,6.43359-38.88123,17.62256-51.18878c10.90918-12.30756,26.01416-19.02106,44.47534-19.02106
	c17.9021,0,31.04907,6.99304,39.7207,19.02106h0.55884v-15.10455h36.6438v132.58716c0,20.13959-6.15405,33.84619-17.06299,43.63623
	c-12.02808,11.18903-30.48975,16.22406-51.74829,16.22406C2767.82617,928.95123,2744.60938,912.16766,2740.41357,884.19604z
	 M2833.00098,829.37073c5.31445-6.99304,7.83203-16.50354,7.83203-27.4126c0-10.62958-2.79712-20.41962-8.3916-27.41266
	s-13.98608-11.46857-25.73413-11.46857c-19.58057,0-32.16821,14.82507-32.16821,39.16071
	c0,24.6156,12.58765,38.60168,32.44775,38.60168C2819.01489,840.83929,2827.40649,836.36377,2833.00098,829.37073z
	 M2915.79785,897.06311c15.38452,0,21.25854-7.55255,21.25854-19.58063c0-3.63654-0.55933-8.39154-2.23755-14.26556
	c-1.95801-5.87402-4.47534-13.70654-8.67139-24.6156l-38.60132-102.09753h39.99976l21.25903,64.6153
	c2.23755,6.71307,4.19556,14.26562,6.15356,20.69916c0.8396,3.63647,1.95801,6.99298,3.07715,10.62952h0.55933
	c0.83911-3.63654,1.67871-6.99304,2.51758-10.62952c1.39844-6.43353,3.63647-13.98608,5.87402-20.69916l20.14014-64.6153h38.32178
	l-50.07031,147.13275c-5.59399,16.22357-10.90918,26.85309-18.46167,33.56616c-7.83203,6.99304-17.62207,9.79053-32.16772,9.79053
	h-22.37744v-29.93011H2915.79785z M880,880h160V400H880V880z M1120,320h400V160h-400V320z M880,160.00003h160v160H880V160.00003z
	 M640,880h160V160H640V880z M400,720h160V160H400V720z M160,880h160V160H160V880z M1120,880h160V400h-160V880z"/>
</svg>
