<?xml version="1.0" encoding="UTF-8" standalone="no"?>
<!-- Generator: Adobe Illustrator 16.0.0, SVG Export Plug-In . SVG Version: 6.00 Build 0)  -->

<svg
   xmlns:dc="http://purl.org/dc/elements/1.1/"
   xmlns:cc="http://creativecommons.org/ns#"
   xmlns:rdf="http://www.w3.org/1999/02/22-rdf-syntax-ns#"
   xmlns:svg="http://www.w3.org/2000/svg"
   xmlns="http://www.w3.org/2000/svg"
   xmlns:sodipodi="http://sodipodi.sourceforge.net/DTD/sodipodi-0.dtd"
   xmlns:inkscape="http://www.inkscape.org/namespaces/inkscape"
   version="1.1"
   id="Layer_1"
   x="0px"
   y="0px"
   width="180.117"
   height="40.216999"
   viewBox="0 0 180.117 40.217"
   enable-background="new 0 0 180.619 42.725"
   xml:space="preserve"
   sodipodi:docname="MIT-logo-with-spelling-design1-large-black-red.svg"
   inkscape:version="0.92.4 (unknown)"><metadata
   id="metadata95"><rdf:RDF><cc:Work
       rdf:about=""><dc:format>image/svg+xml</dc:format><dc:type
         rdf:resource="http://purl.org/dc/dcmitype/StillImage" /><dc:title></dc:title></cc:Work></rdf:RDF></metadata><defs
   id="defs93" /><sodipodi:namedview
   pagecolor="#ffffff"
   bordercolor="#666666"
   borderopacity="1"
   objecttolerance="10"
   gridtolerance="10"
   guidetolerance="10"
   inkscape:pageopacity="0"
   inkscape:pageshadow="2"
   inkscape:window-width="1855"
   inkscape:window-height="1056"
   id="namedview91"
   showgrid="false"
   fit-margin-top="0"
   fit-margin-left="0"
   fit-margin-right="0"
   fit-margin-bottom="0"
   inkscape:zoom="1.6221992"
   inkscape:cx="90.309502"
   inkscape:cy="20.637501"
   inkscape:window-x="65"
   inkscape:window-y="24"
   inkscape:window-maximized="1"
   inkscape:current-layer="Layer_1" />
<g
   id="g88"
   transform="translate(0,-1.783)">
	<g
   id="g16">
		<rect
   x="52"
   y="1.783"
   width="20"
   height="8"
   id="rect2"
   style="fill:#231f20" />
		<rect
   x="13"
   y="1.783"
   width="8"
   height="26"
   id="rect4"
   style="fill:#231f20" />
		<rect
   x="26"
   y="1.783"
   width="8"
   height="38"
   id="rect6"
   style="fill:#231f20" />
		<rect
   y="1.783"
   width="8"
   height="38"
   id="rect8"
   x="0"
   style="fill:#231f20" />
		<rect
   x="52"
   y="14.783"
   width="8"
   height="25"
   id="rect10"
   style="fill:#231f20" />
		<rect
   x="39"
   y="1.783"
   width="8"
   height="8"
   id="rect12"
   style="fill:#231f20" />
		<rect
   x="39"
   y="14.783"
   width="8"
   height="25"
   id="rect14"
   style="fill:#a41f35" />
	</g>
	<g
   id="g86">
		<path
   d="m 89.032,1.802 h 3.262 l 1.574,6.611 h 0.025 l 1.624,-6.611 h 3.225 V 10.7 h -2.1 V 3.789 H 96.617 L 94.855,10.7 H 92.893 L 91.081,3.789 H 91.056 V 10.7 h -2.024 z"
   id="path18"
   inkscape:connector-curvature="0"
   style="fill:#010101" />
		<path
   d="m 106.043,9.312 c 0,0.462 0.013,0.975 0.175,1.387 h -1.8 c -0.074,-0.225 -0.111,-0.462 -0.125,-0.688 h -0.024 c -0.325,0.525 -1.3,0.862 -1.999,0.862 -1.275,0 -2.225,-0.7 -2.225,-1.975 0,-1.6 1.287,-2.162 3.411,-2.461 l 0.712,-0.1 v -0.55 c 0,-0.5 -0.399,-0.712 -0.924,-0.712 -0.625,0 -0.926,0.225 -1.025,0.887 h -1.875 c 0.062,-1.912 1.838,-2.087 2.737,-2.087 1.812,0 2.95,0.425 2.962,1.924 z m -1.875,-1.849 -1.312,0.375 c -0.487,0.138 -0.938,0.325 -0.938,0.862 0,0.525 0.438,0.75 0.913,0.75 0.762,0 1.336,-0.513 1.336,-1.525 V 7.463 Z"
   id="path20"
   inkscape:connector-curvature="0"
   style="fill:#010101" />
		<path
   d="m 112.155,6.013 c -0.388,-0.462 -1.225,-0.712 -1.837,-0.712 -0.487,0 -0.838,0.175 -0.838,0.512 0,1.137 3.938,0.2 3.938,2.687 0,1.75 -1.55,2.374 -3,2.374 -1.449,0 -2.273,-0.412 -3.248,-1.312 l 1.211,-1.05 c 0.601,0.575 1.213,0.938 2.1,0.938 0.325,0 1.062,-0.075 1.062,-0.675 0,-1.038 -3.937,-0.213 -3.937,-2.575 0,-1.674 1.462,-2.324 2.812,-2.324 1.025,0 2.037,0.362 2.938,0.962 z"
   id="path22"
   inkscape:connector-curvature="0"
   style="fill:#010101" />
		<path
   d="m 119.105,6.013 c -0.387,-0.462 -1.225,-0.712 -1.837,-0.712 -0.487,0 -0.837,0.175 -0.837,0.512 0,1.137 3.936,0.2 3.936,2.687 0,1.75 -1.549,2.374 -2.998,2.374 -1.45,0 -2.275,-0.412 -3.25,-1.312 l 1.213,-1.05 c 0.6,0.575 1.212,0.938 2.1,0.938 0.324,0 1.062,-0.075 1.062,-0.675 0,-1.038 -3.937,-0.213 -3.937,-2.575 0,-1.674 1.463,-2.324 2.812,-2.324 1.024,0 2.037,0.362 2.936,0.962 z"
   id="path24"
   inkscape:connector-curvature="0"
   style="fill:#010101" />
		<path
   d="m 127.355,9.312 c 0,0.462 0.013,0.975 0.175,1.387 h -1.8 c -0.074,-0.225 -0.111,-0.462 -0.125,-0.688 h -0.024 c -0.325,0.525 -1.3,0.862 -1.999,0.862 -1.275,0 -2.225,-0.7 -2.225,-1.975 0,-1.6 1.287,-2.162 3.411,-2.461 l 0.712,-0.1 v -0.55 c 0,-0.5 -0.399,-0.712 -0.924,-0.712 -0.625,0 -0.926,0.225 -1.025,0.887 h -1.875 c 0.062,-1.912 1.838,-2.087 2.737,-2.087 1.812,0 2.95,0.425 2.962,1.924 z m -1.875,-1.849 -1.312,0.375 c -0.487,0.138 -0.938,0.325 -0.938,0.862 0,0.525 0.438,0.75 0.913,0.75 0.762,0 1.336,-0.513 1.336,-1.525 V 7.463 Z"
   id="path26"
   inkscape:connector-curvature="0"
   style="fill:#010101" />
		<path
   d="m 133.468,6.288 c -0.35,-0.75 -0.95,-0.912 -1.249,-0.912 -1.113,0 -1.513,0.862 -1.513,2 0,1.138 0.476,2 1.513,2 0.6,0 1.074,-0.225 1.387,-0.975 l 1.399,0.712 c -0.6,1.062 -1.687,1.762 -2.962,1.762 -1.986,0 -3.361,-1.262 -3.361,-3.499 0,-2.199 1.462,-3.499 3.299,-3.499 1.263,0 2.35,0.462 2.987,1.625 z"
   id="path28"
   inkscape:connector-curvature="0"
   style="fill:#010101" />
		<path
   d="m 136.107,1.802 h 1.949 v 2.875 h 0.024 c 0.375,-0.513 1.212,-0.8 1.825,-0.8 1.399,0 2.086,0.812 2.086,2.149 V 10.7 h -1.949 V 6.713 c 0,-1.025 -0.55,-1.262 -0.975,-1.262 -0.449,0 -1.012,0.287 -1.012,1.524 V 10.7 h -1.949 V 1.802 Z"
   id="path30"
   inkscape:connector-curvature="0"
   style="fill:#010101" />
		<path
   d="m 149.63,10.7 h -1.949 v -0.587 c -0.5,0.587 -1.325,0.762 -1.925,0.762 -1.574,0 -2.012,-0.912 -2.012,-1.912 V 4.051 h 1.949 V 8.4 c 0,0.587 0.213,0.9 0.949,0.9 0.562,0 1.038,-0.312 1.038,-1.038 V 4.051 h 1.949 V 10.7 Z"
   id="path32"
   inkscape:connector-curvature="0"
   style="fill:#010101" />
		<path
   d="m 155.692,6.013 c -0.388,-0.462 -1.225,-0.712 -1.837,-0.712 -0.487,0 -0.838,0.175 -0.838,0.512 0,1.137 3.938,0.2 3.938,2.687 0,1.75 -1.55,2.374 -3,2.374 -1.449,0 -2.273,-0.412 -3.248,-1.312 l 1.211,-1.05 c 0.601,0.575 1.213,0.938 2.1,0.938 0.325,0 1.062,-0.075 1.062,-0.675 0,-1.038 -3.937,-0.213 -3.937,-2.575 0,-1.674 1.462,-2.324 2.812,-2.324 1.025,0 2.037,0.362 2.938,0.962 z"
   id="path34"
   inkscape:connector-curvature="0"
   style="fill:#010101" />
		<path
   d="m 159.807,7.775 c 0.012,1.275 0.824,1.675 1.449,1.675 0.725,0 1.062,-0.375 1.625,-1.175 l 1.461,0.762 c -0.674,1.25 -1.736,1.837 -3.224,1.837 -2.062,0 -3.262,-1.424 -3.262,-3.299 0,-2.35 1.237,-3.699 3.262,-3.699 2.425,0 3.249,1.85 3.262,3.899 z m 2.623,-1.199 c -0.062,-0.975 -0.762,-1.274 -1.324,-1.274 -0.562,0 -1.236,0.399 -1.324,1.274 z"
   id="path36"
   inkscape:connector-curvature="0"
   style="fill:#010101" />
		<path
   d="m 169.03,5.376 h -1.163 v 3.262 c 0,0.525 0.264,0.663 0.613,0.663 0.213,0 0.487,-0.025 0.588,-0.038 V 10.8 c -0.25,0.025 -0.826,0.075 -1.25,0.075 -1.662,0 -1.9,-1.037 -1.9,-2 V 5.376 h -0.949 v -1.2 h 0.949 V 2.252 h 1.949 v 1.924 h 1.163 z"
   id="path38"
   inkscape:connector-curvature="0"
   style="fill:#010101" />
		<path
   d="m 173.43,5.376 h -1.162 v 3.262 c 0,0.525 0.263,0.663 0.613,0.663 0.212,0 0.486,-0.025 0.586,-0.038 V 10.8 c -0.249,0.025 -0.824,0.075 -1.249,0.075 -1.662,0 -1.899,-1.037 -1.899,-2 V 5.376 h -0.949 v -1.2 h 0.949 V 2.252 h 1.949 v 1.924 h 1.162 z"
   id="path40"
   inkscape:connector-curvature="0"
   style="fill:#010101" />
		<path
   d="m 178.854,6.013 c -0.388,-0.462 -1.225,-0.712 -1.837,-0.712 -0.487,0 -0.838,0.175 -0.838,0.512 0,1.137 3.938,0.2 3.938,2.687 0,1.75 -1.55,2.374 -3,2.374 -1.449,0 -2.273,-0.412 -3.248,-1.312 l 1.211,-1.05 c 0.601,0.575 1.213,0.938 2.1,0.938 0.325,0 1.062,-0.075 1.062,-0.675 0,-1.038 -3.937,-0.213 -3.937,-2.575 0,-1.674 1.462,-2.324 2.812,-2.324 1.025,0 2.037,0.362 2.938,0.962 z"
   id="path42"
   inkscape:connector-curvature="0"
   style="fill:#010101" />
		<path
   d="m 89.082,16.352 h 2.225 v 8.898 h -2.225 z"
   id="path44"
   inkscape:connector-curvature="0"
   style="fill:#010101" />
		<path
   d="m 93.044,18.601 h 1.95 v 0.587 c 0.5,-0.587 1.324,-0.762 1.924,-0.762 1.574,0 2.012,0.912 2.012,1.912 v 4.912 h -1.95 v -4.162 c 0,-0.65 -0.199,-1.087 -0.949,-1.087 -0.787,0 -1.037,0.512 -1.037,1.112 v 4.137 h -1.95 z"
   id="path46"
   inkscape:connector-curvature="0"
   style="fill:#010101" />
		<path
   d="m 104.992,20.563 c -0.387,-0.462 -1.225,-0.712 -1.836,-0.712 -0.488,0 -0.838,0.175 -0.838,0.512 0,1.137 3.937,0.2 3.937,2.688 0,1.749 -1.55,2.373 -2.999,2.373 -1.449,0 -2.274,-0.412 -3.25,-1.312 l 1.213,-1.05 c 0.6,0.574 1.213,0.938 2.1,0.938 0.324,0 1.062,-0.075 1.062,-0.675 0,-1.038 -3.938,-0.213 -3.938,-2.575 0,-1.674 1.463,-2.324 2.812,-2.324 1.025,0 2.037,0.362 2.937,0.962 z"
   id="path48"
   inkscape:connector-curvature="0"
   style="fill:#010101" />
		<path
   d="m 110.918,19.926 h -1.162 v 3.262 c 0,0.525 0.263,0.662 0.613,0.662 0.212,0 0.486,-0.025 0.586,-0.037 v 1.537 c -0.249,0.025 -0.824,0.074 -1.249,0.074 -1.662,0 -1.899,-1.037 -1.899,-1.999 v -3.499 h -0.949 v -1.2 h 0.949 v -1.924 h 1.949 v 1.924 h 1.162 z"
   id="path50"
   inkscape:connector-curvature="0"
   style="fill:#010101" />
		<path
   d="m 112.031,17.851 v -1.5 h 1.949 v 1.5 z m 1.949,0.75 v 6.649 h -1.949 v -6.649 z"
   id="path52"
   inkscape:connector-curvature="0"
   style="fill:#010101" />
		<path
   d="m 119.018,19.926 h -1.162 v 3.262 c 0,0.525 0.263,0.662 0.613,0.662 0.212,0 0.486,-0.025 0.586,-0.037 v 1.537 c -0.249,0.025 -0.824,0.074 -1.249,0.074 -1.662,0 -1.899,-1.037 -1.899,-1.999 v -3.499 h -0.949 v -1.2 h 0.949 v -1.924 h 1.949 v 1.924 h 1.162 z"
   id="path54"
   inkscape:connector-curvature="0"
   style="fill:#010101" />
		<path
   d="m 126.018,25.25 h -1.949 v -0.588 c -0.5,0.588 -1.325,0.762 -1.926,0.762 -1.574,0 -2.012,-0.912 -2.012,-1.912 v -4.911 h 1.949 v 4.349 c 0,0.587 0.213,0.899 0.95,0.899 0.562,0 1.038,-0.312 1.038,-1.037 v -4.211 h 1.949 v 6.649 z"
   id="path56"
   inkscape:connector-curvature="0"
   style="fill:#010101" />
		<path
   d="m 131.055,19.926 h -1.162 v 3.262 c 0,0.525 0.263,0.662 0.613,0.662 0.212,0 0.486,-0.025 0.586,-0.037 v 1.537 c -0.249,0.025 -0.824,0.074 -1.249,0.074 -1.662,0 -1.899,-1.037 -1.899,-1.999 v -3.499 h -0.949 v -1.2 h 0.949 v -1.924 h 1.949 v 1.924 h 1.162 z"
   id="path58"
   inkscape:connector-curvature="0"
   style="fill:#010101" />
		<path
   d="m 133.643,22.325 c 0.012,1.275 0.825,1.675 1.449,1.675 0.726,0 1.062,-0.375 1.625,-1.175 l 1.463,0.763 c -0.676,1.249 -1.737,1.836 -3.225,1.836 -2.062,0 -3.262,-1.424 -3.262,-3.299 0,-2.349 1.237,-3.699 3.262,-3.699 2.424,0 3.249,1.85 3.262,3.899 z m 2.625,-1.2 c -0.062,-0.975 -0.763,-1.274 -1.325,-1.274 -0.562,0 -1.237,0.399 -1.325,1.274 z"
   id="path60"
   inkscape:connector-curvature="0"
   style="fill:#010101" />
		<path
   d="m 149.654,21.925 c 0,2.237 -1.463,3.499 -3.537,3.499 -2.074,0 -3.537,-1.262 -3.537,-3.499 0,-2.237 1.463,-3.499 3.537,-3.499 2.074,0 3.537,1.262 3.537,3.499 z m -5.124,0 c 0,1.137 0.475,2 1.587,2 1.112,0 1.587,-0.862 1.587,-2.075 0,-1.062 -0.475,-1.924 -1.587,-1.924 -1.112,0 -1.587,0.862 -1.587,1.999 z"
   id="path62"
   inkscape:connector-curvature="0"
   style="fill:#010101" />
		<path
   d="m 151.18,19.926 h -1.023 v -1.2 h 1.023 v -0.65 c 0,-0.75 0.238,-1.825 1.9,-1.825 0.425,0 1.024,0.062 1.274,0.15 v 1.424 h -0.55 c -0.338,0 -0.675,0.1 -0.675,0.475 v 0.425 h 1.2 v 1.2 h -1.2 v 5.324 h -1.95 v -5.323 z"
   id="path64"
   inkscape:connector-curvature="0"
   style="fill:#010101" />
		<path
   d="m 86.77,30.902 h 6.874 v 1.725 H 91.319 V 39.8 H 89.095 V 32.627 H 86.77 Z"
   id="path66"
   inkscape:connector-curvature="0"
   style="fill:#010101" />
		<path
   d="m 95.219,36.875 c 0.013,1.275 0.825,1.676 1.449,1.676 0.726,0 1.062,-0.375 1.625,-1.176 l 1.463,0.763 c -0.676,1.249 -1.737,1.837 -3.225,1.837 -2.062,0 -3.262,-1.424 -3.262,-3.299 0,-2.35 1.237,-3.699 3.262,-3.699 2.424,0 3.249,1.85 3.262,3.898 z m 2.625,-1.199 c -0.062,-0.975 -0.763,-1.275 -1.325,-1.275 -0.562,0 -1.237,0.4 -1.325,1.275 z"
   id="path68"
   inkscape:connector-curvature="0"
   style="fill:#010101" />
		<path
   d="m 105.468,35.389 c -0.35,-0.75 -0.95,-0.912 -1.249,-0.912 -1.113,0 -1.513,0.861 -1.513,1.999 0,1.138 0.476,1.999 1.513,1.999 0.6,0 1.074,-0.225 1.387,-0.975 l 1.399,0.713 c -0.6,1.062 -1.687,1.762 -2.962,1.762 -1.986,0 -3.361,-1.262 -3.361,-3.499 0,-2.199 1.462,-3.499 3.299,-3.499 1.263,0 2.35,0.463 2.987,1.625 z"
   id="path70"
   inkscape:connector-curvature="0"
   style="fill:#010101" />
		<path
   d="m 108.107,30.902 h 1.949 v 2.874 h 0.024 c 0.375,-0.513 1.212,-0.8 1.825,-0.8 1.399,0 2.086,0.812 2.086,2.149 V 39.8 h -1.949 v -3.986 c 0,-1.024 -0.55,-1.263 -0.975,-1.263 -0.449,0 -1.012,0.287 -1.012,1.525 V 39.8 h -1.949 v -8.898 z"
   id="path72"
   inkscape:connector-curvature="0"
   style="fill:#010101" />
		<path
   d="m 115.744,33.151 h 1.949 v 0.587 c 0.5,-0.587 1.324,-0.762 1.925,-0.762 1.574,0 2.012,0.912 2.012,1.912 V 39.8 h -1.949 v -4.161 c 0,-0.65 -0.2,-1.088 -0.95,-1.088 -0.787,0 -1.037,0.513 -1.037,1.112 V 39.8 h -1.949 v -6.649 z"
   id="path74"
   inkscape:connector-curvature="0"
   style="fill:#010101" />
		<path
   d="m 129.979,36.476 c 0,2.237 -1.462,3.499 -3.536,3.499 -2.075,0 -3.537,-1.262 -3.537,-3.499 0,-2.237 1.462,-3.499 3.537,-3.499 2.075,0 3.536,1.261 3.536,3.499 z m -5.124,0 c 0,1.138 0.475,1.999 1.588,1.999 1.111,0 1.586,-0.861 1.586,-2.074 0,-1.062 -0.475,-1.924 -1.586,-1.924 -1.113,0 -1.588,0.861 -1.588,1.999 z"
   id="path76"
   inkscape:connector-curvature="0"
   style="fill:#010101" />
		<path
   d="m 131.256,39.8 v -8.897 h 1.949 V 39.8 Z"
   id="path78"
   inkscape:connector-curvature="0"
   style="fill:#010101" />
		<path
   d="m 141.555,36.476 c 0,2.237 -1.463,3.499 -3.537,3.499 -2.074,0 -3.537,-1.262 -3.537,-3.499 0,-2.237 1.463,-3.499 3.537,-3.499 2.074,0 3.537,1.261 3.537,3.499 z m -5.124,0 c 0,1.138 0.475,1.999 1.587,1.999 1.112,0 1.587,-0.861 1.587,-2.074 0,-1.062 -0.475,-1.924 -1.587,-1.924 -1.112,0 -1.587,0.861 -1.587,1.999 z"
   id="path80"
   inkscape:connector-curvature="0"
   style="fill:#010101" />
		<path
   d="m 148.667,33.151 v 6.661 c 0,2.111 -2.162,2.188 -3.187,2.188 -2,0 -3.049,-0.676 -3.062,-2.301 h 2.025 c 0.012,0.726 0.424,1.025 1.125,1.025 0.749,0 1.211,-0.15 1.211,-1.125 v -0.762 c -0.424,0.412 -1.249,0.549 -1.836,0.549 -1.863,0 -2.588,-1.499 -2.588,-3.174 0,-1.625 0.85,-3.236 2.612,-3.236 0.726,0 1.35,0.162 1.899,0.699 V 33.151 Z M 145.53,34.4 c -0.612,0 -1.225,0.351 -1.225,1.787 0,0.801 0.175,1.775 1.2,1.775 1.249,0 1.287,-1.088 1.287,-1.775 0.001,-1.349 -0.662,-1.787 -1.262,-1.787 z"
   id="path82"
   inkscape:connector-curvature="0"
   style="fill:#010101" />
		<path
   d="m 150.105,40.475 c 0.225,0.013 0.45,0.025 0.662,0.025 0.588,0 0.9,-0.113 0.9,-0.488 0,-0.1 -0.013,-0.212 -0.176,-0.712 l -1.949,-6.148 h 2.05 l 1.075,5.073 h 0.024 l 1.087,-5.073 h 2.112 l -2.337,7.086 C 153.217,41.25 152.793,42 151.643,42 h -1.537 v -1.525 z"
   id="path84"
   inkscape:connector-curvature="0"
   style="fill:#010101" />
	</g>
</g>
</svg>